<?xml version="1.0" encoding="UTF-8" standalone="no"?>
<svg width="356px" height="304px" viewBox="0 0 356 304" version="1.1" xmlns="http://www.w3.org/2000/svg" xmlns:xlink="http://www.w3.org/1999/xlink" xmlns:sketch="http://www.bohemiancoding.com/sketch/ns">
    <!-- Generator: Sketch 3.3.2 (12043) - http://www.bohemiancoding.com/sketch -->
    <title>ruby</title>
    <desc>Created with Sketch.</desc>
    <defs></defs>
    <g id="Page-1" stroke="none" stroke-width="1" fill="none" fill-rule="evenodd" sketch:type="MSPage">
        <path d="M178.000736,303.919023 L118.666667,102.868803 L0,102.868803 L178.004201,303.930762 L178.000736,303.919023 L356,102.868803 L237.333333,102.868803 L177.998551,303.921491 L178.000736,303.919023 Z M59.3333333,0.103471578 L118.666667,102.868803 L0,102.868803 L59.3333333,0.103471578 Z M59.3333333,0.103471578 L178,0.103471578 L118.666667,102.868803 L59.3333333,0.103471578 Z M118.666667,102.868803 L237.333333,102.868803 L178,303.890138 L118.666667,102.868803 Z M178,0.103471578 L296.666667,0.103471578 L237.333333,102.868803 L178,0.103471578 Z M178,0.103471578 L237.333333,102.868803 L118.666667,102.868803 L178,0.103471578 Z M296.666667,0.103471578 L356,102.868803 L237.333333,102.868803 L296.666667,0.103471578 Z" id="Triangle-1" fill="#E8E8E8" sketch:type="MSShapeGroup"></path>
        <g id="Group" sketch:type="MSLayerGroup" transform="translate(28.000000, 15.000000)">
            <polygon id="Triangle-1" fill="#B90404" sketch:type="MSShapeGroup" points="50 1 100 87.5999985 0 87.5999985 "></polygon>
            <path d="M50,1 L150,1 L100,87.5999985 L50,1 Z" id="Triangle-1-Copy-3" fill="#970000" sketch:type="MSShapeGroup"></path>
            <path d="M0,87.5999985 L100,87.5999985 L150.00354,257.034233 L0,87.5999985 Z" id="Triangle-1-Copy-5" fill="#6C0000" sketch:type="MSShapeGroup"></path>
            <path d="M100,87.5999985 L200,87.5999985 L150,257 L100,87.5999985 Z" id="Triangle-1-Copy-6" fill="#970000" sketch:type="MSShapeGroup"></path>
            <path d="M200,87.5999985 L300,87.5999985 L149.998779,257.026421 L200,87.5999985 Z" id="Triangle-1-Copy-7" fill="#6C0000" sketch:type="MSShapeGroup"></path>
            <path d="M150,1 L250,1 L200,87.5999985 L150,1 Z" id="Triangle-1-Copy-4" fill="#970000" sketch:type="MSShapeGroup"></path>
            <polygon id="Triangle-1-Copy" fill="#6C0000" sketch:type="MSShapeGroup" points="150 1 200 87.5999985 100 87.5999985 "></polygon>
            <polygon id="Triangle-1-Copy-2" fill="#B90404" sketch:type="MSShapeGroup" points="250 1 300 87.5999985 200 87.5999985 "></polygon>
        </g>
        <path d="M141.40625,124.304688 C140.234369,124.304688 139.179692,123.835942 138.242188,122.898438 L119.140625,95.7109375 L119.140625,152.546875 C119.140625,156.062518 117.734389,157.820312 114.921875,157.820312 C112.109361,157.820312 110.703125,156.179704 110.703125,152.898438 L110.703125,86.6875 C110.703125,83.3281082 112.031237,81.6484375 114.6875,81.6484375 C116.406259,81.6484375 117.890619,82.546866 119.140625,84.34375 L141.40625,115.515625 L163.789062,84.34375 C165.039069,82.546866 166.484367,81.6484375 168.125,81.6484375 C170.859389,81.6484375 172.226562,83.3281082 172.226562,86.6875 L172.226562,152.898438 C172.226562,156.179704 170.781264,157.820312 167.890625,157.820312 C165.156236,157.820312 163.789062,156.062518 163.789062,152.546875 L163.789062,95.7109375 L144.6875,122.898438 C143.749995,123.835942 142.656256,124.304688 141.40625,124.304688 L141.40625,124.304688 Z M200.351562,152.898438 C200.351562,156.179704 198.945327,157.820312 196.132812,157.820312 C193.320298,157.820312 191.914062,156.140642 191.914062,152.78125 L191.914062,87.625 C191.914062,84.1874828 193.242174,82.46875 195.898438,82.46875 L245.820312,82.46875 C249.25783,82.46875 250.976562,83.9531102 250.976562,86.921875 C250.976562,89.5781383 249.25783,90.90625 245.820312,90.90625 L200.351562,90.90625 L200.351562,110.828125 L231.40625,110.828125 C235.31252,110.828125 237.265625,112.312485 237.265625,115.28125 C237.265625,117.937513 235.31252,119.265625 231.40625,119.265625 L200.351562,119.265625 L200.351562,152.898438 Z" id="MF" fill="#F6F6F6" sketch:type="MSShapeGroup"></path>
    </g>
</svg>